<?xml version="1.0" standalone="no"?>
<!DOCTYPE svg PUBLIC "-//W3C//DTD SVG 20010904//EN"
 "http://www.w3.org/TR/2001/REC-SVG-20010904/DTD/svg10.dtd">
<svg version="1.0" xmlns="http://www.w3.org/2000/svg"
 width="126.000000pt" height="132.000000pt" viewBox="0 0 126.000000 132.000000"
 preserveAspectRatio="xMidYMid meet">

<g transform="translate(0.000000,132.000000) scale(0.100000,-0.100000)"
fill="#000000" stroke="none">
<path d="M487 1235 c-165 -45 -306 -178 -374 -352 -23 -59 -27 -84 -27 -183
-1 -130 10 -183 61 -281 65 -126 195 -233 332 -273 80 -23 222 -21 302 5 122
40 227 121 300 232 63 97 84 173 84 307 0 70 -5 131 -14 155 -65 194 -215 343
-396 391 -63 17 -205 16 -268 -1z m308 -24 c122 -43 229 -137 291 -254 49 -93
64 -154 64 -262 0 -158 -50 -283 -153 -388 -110 -111 -220 -157 -377 -157
-106 0 -133 6 -230 53 -76 36 -182 136 -223 211 -122 221 -86 495 89 670 72
72 150 116 249 142 72 19 215 12 290 -15z"/>
<path d="M640 1173 c0 -16 -3 -38 -6 -50 -5 -18 -2 -23 12 -23 15 0 19 9 21
42 3 47 6 53 28 45 18 -8 20 -58 3 -75 -9 -9 -9 -12 3 -12 22 0 39 21 39 46 0
28 -35 54 -72 54 -24 0 -28 -4 -28 -27z"/>
<path d="M457 1174 c-3 -4 0 -13 8 -21 25 -25 16 -33 -19 -18 -19 8 -42 12
-50 9 -12 -5 -12 -11 4 -47 10 -23 16 -45 14 -49 -3 -4 -1 -8 4 -8 19 0 19 13
0 46 -23 39 -17 41 40 14 22 -11 43 -20 46 -20 2 0 -3 22 -12 50 -17 49 -22
56 -35 44z"/>
<path d="M775 1141 c-3 -16 -13 -35 -21 -42 -12 -10 -12 -14 -2 -20 20 -13 26
-11 33 11 9 29 25 24 25 -7 0 -20 10 -36 34 -55 39 -31 46 -34 46 -16 0 6 11
26 24 43 18 24 22 35 14 43 -8 8 -19 1 -41 -28 -16 -22 -33 -38 -38 -34 -15 9
-10 61 6 68 24 9 18 25 -17 46 -44 27 -55 25 -63 -9z m61 -2 c3 -6 2 -15 -2
-19 -12 -12 -38 5 -30 19 9 14 23 14 32 0z"/>
<path d="M302 1084 c-25 -17 -31 -71 -10 -92 31 -31 98 4 98 51 0 26 -28 57
-51 57 -8 0 -25 -7 -37 -16z m53 -30 c17 -27 14 -54 -6 -54 -21 0 -49 32 -49
57 0 32 33 30 55 -3z"/>
<path d="M543 1061 c-109 -28 -198 -103 -250 -210 -25 -50 -28 -67 -28 -161 0
-94 3 -111 28 -166 34 -73 101 -142 177 -181 49 -25 66 -28 150 -28 107 0 160
18 235 79 218 179 163 541 -99 650 -47 19 -167 29 -213 17z m165 -15 c108 -29
190 -99 241 -206 22 -47 26 -68 26 -150 0 -82 -4 -103 -27 -152 -37 -80 -105
-149 -181 -184 -53 -25 -74 -29 -147 -29 -72 0 -93 4 -140 27 -61 31 -103 64
-113 91 -5 13 0 20 21 27 15 5 40 16 55 25 16 8 34 15 41 15 7 0 24 6 39 13
27 12 27 13 22 91 -6 90 -28 127 -74 125 l-26 -2 25 -4 c41 -8 51 -23 49 -72
0 -25 2 -61 6 -79 7 -29 5 -34 -14 -39 -11 -3 -21 -10 -21 -15 0 -5 -8 -7 -19
-3 -10 3 -23 -1 -29 -8 -16 -19 -87 -41 -107 -34 -8 4 -25 28 -37 54 -18 39
-22 67 -23 148 0 88 3 107 26 156 48 103 133 176 237 204 63 18 106 18 170 1z"/>
<path d="M390 909 l0 -29 179 2 178 1 1 28 1 28 -100 0 c-69 0 -99 -4 -99 -12
0 -9 -3 -8 -8 1 -6 8 -32 12 -80 11 l-72 -2 0 -28z"/>
<path d="M850 922 c-22 -7 -90 -54 -90 -62 0 -14 30 -19 52 -9 l23 10 -23 -5
c-20 -4 -21 -2 -10 11 7 9 30 24 51 33 35 16 33 33 -3 22z"/>
<path d="M869 883 c-13 -16 -12 -17 4 -4 9 7 17 15 17 17 0 8 -8 3 -21 -13z"/>
<path d="M688 820 c-9 -6 -41 -12 -70 -15 -154 -13 -261 -52 -198 -73 7 -3 10
0 7 6 -4 5 3 13 16 17 52 17 135 34 173 34 23 1 61 8 84 16 24 8 45 13 48 11
2 -3 -5 -17 -17 -32 -11 -15 -21 -34 -20 -43 0 -10 4 -6 10 9 6 13 17 32 26
42 8 9 12 22 8 27 -8 14 -44 14 -67 1z"/>
<path d="M640 706 c0 -7 8 -20 18 -27 15 -13 16 -12 3 4 -16 20 -12 21 23 7
14 -5 26 -17 26 -25 0 -9 4 -14 9 -11 5 3 12 -1 15 -10 4 -10 1 -14 -6 -11 -7
2 -28 -2 -45 -9 -18 -7 -33 -9 -33 -5 0 4 -7 8 -15 8 -24 0 3 -25 35 -32 37
-8 49 -23 52 -67 1 -20 6 -34 10 -32 5 3 6 10 2 15 -3 6 -3 25 0 43 6 32 7 33
67 35 36 1 67 -3 75 -10 25 -21 64 4 64 41 0 27 -3 30 -30 30 -19 0 -33 7 -40
21 -15 28 -52 22 -60 -10 -3 -13 -13 -25 -22 -27 -10 -1 -16 1 -15 5 1 4 -12
23 -29 43 -23 26 -35 33 -47 27 -10 -6 -18 -5 -22 1 -9 15 -35 12 -35 -4z
m220 -41 c0 -8 -6 -15 -14 -15 -20 0 -29 17 -14 23 22 9 28 7 28 -8z"/>
<path d="M658 473 c6 -2 18 -2 25 0 6 3 1 5 -13 5 -14 0 -19 -2 -12 -5z"/>
<path d="M450 460 c8 -5 20 -10 25 -10 6 0 3 5 -5 10 -8 5 -19 10 -25 10 -5 0
-3 -5 5 -10z"/>
<path d="M498 463 c6 -2 18 -2 25 0 6 3 1 5 -13 5 -14 0 -19 -2 -12 -5z"/>
<path d="M563 463 c15 -2 37 -2 50 0 12 2 0 4 -28 4 -27 0 -38 -2 -22 -4z"/>
<path d="M945 1018 c-11 -29 -21 -56 -23 -59 -3 -8 97 16 106 25 3 3 2 9 -2
13 -4 4 -10 3 -14 -3 -4 -6 -17 -13 -28 -16 -18 -5 -21 -2 -16 16 3 11 9 26
13 32 5 6 3 18 -4 28 -11 15 -15 11 -32 -36z"/>
<path d="M220 991 c-6 -12 -7 -21 -1 -21 5 0 23 -12 40 -26 26 -22 34 -24 46
-14 13 11 11 16 -17 32 -18 11 -38 26 -45 35 -10 13 -13 12 -23 -6z"/>
<path d="M1025 928 c-16 -10 -38 -18 -47 -18 -15 0 -16 -4 -6 -25 6 -14 14
-22 17 -17 10 15 68 42 75 35 3 -4 6 -18 6 -32 0 -18 3 -22 11 -14 8 8 5 22
-8 50 l-18 40 -30 -19z"/>
<path d="M170 898 c-18 -41 -18 -58 0 -58 4 0 6 9 3 20 -7 25 -2 25 46 0 35
-17 40 -18 45 -3 4 9 5 16 4 17 -2 1 -20 9 -40 19 -39 17 -48 31 -25 40 9 4 9
6 -1 6 -7 1 -21 -18 -32 -41z"/>
<path d="M1030 870 c0 -11 4 -20 9 -20 17 0 19 15 5 28 -12 11 -14 9 -14 -8z"/>
<path d="M990 839 c0 -11 25 -22 39 -17 6 1 -1 8 -14 15 -14 6 -25 7 -25 2z"/>
<path d="M188 801 c-27 -9 -48 -19 -48 -22 0 -4 20 -23 45 -43 32 -27 45 -33
45 -22 0 9 -6 16 -13 16 -7 0 -21 10 -31 22 -15 17 -15 20 -3 15 9 -3 19 -2
23 4 3 6 12 8 19 5 8 -3 15 5 18 20 5 28 7 27 -55 5z"/>
<path d="M1058 806 c-35 -7 -48 -14 -48 -26 0 -13 6 -16 25 -12 30 5 33 -13 5
-28 -14 -7 -20 -20 -18 -38 1 -15 -2 -37 -6 -49 -18 -55 44 -87 63 -33 5 17
15 30 20 30 15 0 14 -33 -1 -49 -11 -11 -10 -13 2 -9 10 3 15 17 15 39 0 28
-4 35 -22 37 -17 3 -26 -3 -33 -22 -9 -24 -40 -37 -40 -17 0 22 13 41 28 41
13 0 13 2 -2 13 -17 13 -17 14 7 29 19 13 27 14 36 5 23 -23 38 29 23 78 -6
18 -11 19 -54 11z m52 -42 c0 -9 -7 -14 -17 -12 -25 5 -28 28 -4 28 12 0 21
-6 21 -16z"/>
<path d="M120 673 c0 -9 10 -11 32 -6 l33 6 -28 -32 c-39 -47 -35 -56 27 -56
33 0 52 4 49 10 -2 6 -20 9 -40 7 l-36 -5 37 46 37 45 -55 -1 c-37 -1 -56 -6
-56 -14z"/>
<path d="M174 566 c-8 -21 3 -36 27 -36 15 0 20 6 17 22 -4 27 -35 37 -44 14z
m36 -11 c0 -8 -7 -15 -15 -15 -16 0 -20 12 -8 23 11 12 23 8 23 -8z"/>
<path d="M1043 573 c-19 -7 -16 -40 4 -47 21 -8 36 6 31 30 -3 19 -16 25 -35
17z m27 -23 c0 -5 -7 -10 -15 -10 -8 0 -15 5 -15 10 0 6 7 10 15 10 8 0 15 -4
15 -10z"/>
<path d="M236 504 c-11 -8 -16 -14 -10 -14 13 0 39 18 34 24 -3 2 -14 -2 -24
-10z"/>
<path d="M985 490 c3 -5 11 -10 16 -10 6 0 7 5 4 10 -3 6 -11 10 -16 10 -6 0
-7 -4 -4 -10z"/>
<path d="M246 465 c-11 -8 -15 -15 -10 -15 6 0 19 7 30 15 10 8 15 14 9 14 -5
0 -19 -6 -29 -14z"/>
<path d="M954 458 c-4 -7 -4 -10 1 -6 4 4 16 3 26 -3 11 -5 19 -7 19 -5 0 3
-9 10 -19 16 -15 7 -22 7 -27 -2z"/>
<path d="M267 449 c-9 -6 -17 -15 -17 -21 0 -7 6 -6 15 2 9 7 19 9 23 5 4 -4
1 -10 -5 -12 -7 -3 -13 -10 -13 -16 0 -6 7 -4 16 5 22 21 7 51 -19 37z"/>
<path d="M952 424 c10 -10 20 -16 22 -13 3 3 -5 11 -17 18 -21 13 -21 12 -5
-5z"/>
<path d="M312 385 c0 -16 2 -22 5 -12 2 9 2 23 0 30 -3 6 -5 -1 -5 -18z"/>
<path d="M915 380 c10 -11 20 -20 23 -20 3 0 -3 9 -13 20 -10 11 -20 20 -23
20 -3 0 3 -9 13 -20z"/>
<path d="M341 357 c-13 -21 -12 -21 5 -5 10 10 16 20 13 22 -3 3 -11 -5 -18
-17z"/>
<path d="M360 340 c-6 -11 -8 -20 -6 -20 3 0 10 9 16 20 6 11 8 20 6 20 -3 0
-10 -9 -16 -20z"/>
<path d="M886 347 c3 -10 9 -15 12 -12 3 3 0 11 -7 18 -10 9 -11 8 -5 -6z"/>
<path d="M291 327 c-10 -13 -7 -18 18 -33 17 -10 31 -22 31 -26 0 -4 4 -8 9
-8 5 0 7 9 4 19 -3 13 -10 18 -21 14 -9 -4 -13 -2 -9 4 4 5 1 18 -6 27 -12 16
-15 16 -26 3z"/>
<path d="M845 320 c-4 -12 -4 -24 -1 -27 3 -4 6 1 6 10 0 11 6 15 18 11 10 -4
13 -2 7 3 -5 4 -13 12 -17 16 -3 5 -9 -1 -13 -13z"/>
<path d="M936 331 c-3 -5 1 -11 9 -14 9 -4 12 -1 8 9 -6 16 -10 17 -17 5z"/>
<path d="M417 313 c-3 -5 -1 -17 4 -28 7 -17 8 -17 8 8 1 27 -4 34 -12 20z"/>
<path d="M800 308 c0 -9 7 -19 16 -22 15 -6 15 -4 3 11 -7 10 -15 20 -16 22
-2 2 -3 -3 -3 -11z"/>
<path d="M455 289 c-4 -6 -5 -12 -2 -15 2 -3 7 2 10 11 7 17 1 20 -8 4z"/>
<path d="M770 291 c0 -5 7 -12 16 -15 14 -5 15 -4 4 9 -14 17 -20 19 -20 6z"/>
<path d="M891 284 c0 -11 3 -14 6 -6 3 7 2 16 -1 19 -3 4 -6 -2 -5 -13z"/>
<path d="M730 285 c0 -5 5 -17 10 -25 5 -8 10 -10 10 -5 0 6 -5 17 -10 25 -5
8 -10 11 -10 5z"/>
<path d="M867 284 c-3 -3 -3 -13 1 -22 5 -15 4 -15 -11 -3 -15 12 -17 11 -17
-2 0 -10 -6 -14 -15 -11 -9 4 -15 0 -15 -10 0 -34 64 -1 66 34 1 22 0 23 -9
14z"/>
<path d="M479 263 c-13 -16 -12 -17 4 -4 16 13 21 21 13 21 -2 0 -10 -8 -17
-17z"/>
<path d="M526 264 c-4 -9 -4 -19 -1 -22 3 -3 5 -2 5 3 0 4 8 1 17 -6 15 -12
16 -12 10 4 -4 10 -7 23 -7 28 0 15 -17 10 -24 -7z"/>
<path d="M688 258 c3 -13 7 -16 12 -8 6 9 9 9 14 -1 3 -9 5 -6 3 5 -1 11 -9
20 -18 21 -12 2 -15 -3 -11 -17z"/>
<path d="M612 250 c0 -14 2 -19 5 -12 2 6 2 18 0 25 -3 6 -5 1 -5 -13z"/>
<path d="M651 254 c0 -11 3 -14 6 -6 3 7 2 16 -1 19 -3 4 -6 -2 -5 -13z"/>
<path d="M376 245 c4 -8 8 -15 10 -15 2 0 4 7 4 15 0 8 -4 15 -10 15 -5 0 -7
-7 -4 -15z"/>
<path d="M401 234 c0 -11 3 -14 6 -6 3 7 2 16 -1 19 -3 4 -6 -2 -5 -13z"/>
<path d="M425 229 c-4 -6 -4 -13 -1 -16 3 -4 6 -1 6 6 0 7 5 9 10 6 6 -3 10
-1 10 4 0 14 -17 14 -25 0z"/>
<path d="M758 228 c-7 -7 -24 -14 -38 -14 -39 -2 -40 -3 -40 -19 0 -19 11 -19
36 -1 13 10 23 11 31 4 10 -8 13 -6 14 8 0 11 3 14 6 7 7 -20 19 -15 20 7 2
23 -9 26 -29 8z"/>
<path d="M494 213 c3 -8 6 -16 6 -19 0 -2 7 -1 15 2 21 9 19 21 -6 27 -15 4
-19 2 -15 -10z"/>
<path d="M547 203 c-13 -13 -7 -19 21 -21 15 0 36 -2 47 -4 12 -2 20 3 20 12
0 9 -10 15 -27 16 -16 1 -28 -3 -28 -9 0 -5 -6 -5 -13 2 -8 6 -17 8 -20 4z"/>
</g>
</svg>
